{"glyphs":{":":{"x_min":0,"x_max":227,"ha":227,"o":"m 46 134 l 181 134 l 181 0 l 46 0 z m 46 511 l 181 511 l 181 377 l 46 377 z"},"$":{"x_min":0,"x_max":537,"ha":537,"o":"m 490 228 q 493 113 425 49 q 385 11 325 1 l 325 -62 l 212 -62 l 212 4 q 131 24 88 99 q 51 163 46 248 l 175 257 q 183 178 215 145 q 239 119 271 120 q 315 121 341 163 q 354 184 354 222 q 354 277 305 332 q 264 370 185 445 q 123 504 95 553 q 60 614 60 686 q 60 755 93 812 q 133 882 212 901 l 212 959 l 325 959 l 325 901 q 379 889 415 856 q 477 798 484 703 l 355 680 q 349 734 324 766 q 307 787 271 787 q 234 787 215 754 q 200 728 200 689 q 200 628 252 564 q 271 541 311 508 q 358 469 374 453 q 423 402 450 355 q 489 286 490 228 z"},"?":{"x_min":0,"x_max":516,"ha":516,"o":"m 263 902 q 371 902 426 825 q 470 763 470 681 q 470 543 346 419 q 303 376 300 318 q 298 299 298 276 l 298 222 l 163 222 l 163 276 q 163 401 225 462 q 292 528 317 598 q 331 638 331 683 q 331 729 310 756 q 288 786 244 781 q 204 776 186 724 q 178 703 175 675 l 46 697 q 53 781 102 837 q 134 876 192 893 q 223 902 263 902 z m 163 129 l 298 129 l 298 -6 l 163 -6 z"},"<":{"x_min":0,"x_max":538,"ha":538,"o":"m 491 678 l 491 565 l 185 438 l 491 310 l 491 197 l 46 390 l 46 487 z"},"'":{"x_min":0,"x_max":217,"ha":217,"o":"m 46 1031 l 170 1031 l 150 828 l 67 828 z"},"=":{"x_min":0,"x_max":550,"ha":550,"o":"m 46 505 l 46 604 l 504 604 l 504 505 z m 46 310 l 46 410 l 504 410 l 504 310 z"},"a":{"x_min":0,"x_max":577,"ha":577,"o":"m 219 205 l 186 0 l 46 0 l 197 890 l 382 890 l 531 0 l 391 0 l 359 205 z m 289 686 l 239 335 l 339 335 z"},"L":{"x_min":0,"x_max":458,"ha":458,"o":"m 412 0 l 46 0 l 46 890 l 180 890 l 180 134 l 412 134 z"},"3":{"x_min":0,"x_max":528,"ha":528,"o":"m 255 128 q 347 128 347 214 l 347 266 q 347 403 204 403 l 204 518 q 281 518 318 562 q 352 601 352 671 l 352 692 q 352 779 276 779 q 233 779 213 746 q 198 722 198 682 l 198 658 l 67 658 l 67 679 q 67 774 115 834 q 170 902 269 902 q 364 902 420 838 q 472 781 472 695 l 472 657 q 472 574 422 513 q 401 488 372 470 q 432 437 464 369 q 482 334 482 284 l 482 214 q 482 115 414 52 q 349 -9 259 -9 q 170 -9 108 53 q 46 116 46 203 l 46 225 l 174 235 l 177 204 q 180 170 201 149 q 222 128 255 128 z"},";":{"x_min":0,"x_max":227,"ha":227,"o":"m 46 134 l 180 134 l 180 -1 l 132 -103 l 75 -103 l 107 -1 l 46 -1 z m 46 511 l 180 511 l 180 377 l 46 377 z"},"J":{"x_min":0,"x_max":388,"ha":388,"o":"m 342 202 q 342 113 279 51 q 217 -10 129 -10 q 78 -10 46 1 l 65 126 q 88 121 104 121 q 114 121 133 122 q 165 124 188 146 q 210 167 210 199 l 210 888 l 342 888 z"},"V":{"x_min":0,"x_max":598,"ha":598,"o":"m 205 0 l 46 890 l 187 890 l 298 197 l 411 890 l 552 890 l 390 0 z"},"\"":{"x_min":0,"x_max":376,"ha":376,"o":"m 67 828 l 46 1031 l 170 1031 l 150 828 z m 226 828 l 205 1031 l 330 1031 l 309 828 z"},"7":{"x_min":0,"x_max":496,"ha":496,"o":"m 450 891 l 450 756 l 261 1 l 130 1 l 318 756 l 46 756 l 46 891 z"},"S":{"x_min":0,"x_max":536,"ha":536,"o":"m 490 222 q 491 129 442 62 q 409 18 349 -1 q 317 -11 275 -11 q 196 -11 144 28 q 101 60 76 115 q 50 170 46 241 l 174 251 q 183 173 215 138 q 239 112 271 114 q 315 115 341 157 q 354 178 354 216 q 354 271 304 326 q 264 364 185 439 q 118 504 90 555 q 60 612 60 680 q 60 801 142 864 q 192 901 267 901 q 339 901 390 869 q 430 844 454 800 q 479 755 484 697 l 355 673 q 349 728 324 759 q 305 781 271 781 q 234 781 214 748 q 199 722 199 683 q 199 621 251 558 q 271 534 311 501 q 358 462 373 447 q 423 397 450 349 q 462 326 470 307 q 489 259 490 222 z"},"}":{"x_min":0,"x_max":381,"ha":381,"o":"m 335 503 l 335 434 q 304 431 292 422 q 280 412 271 390 q 267 379 266 356 q 265 345 265 298 l 265 161 q 265 62 212 23 q 165 -13 46 -13 l 46 79 q 109 79 130 95 q 152 112 152 165 l 152 356 q 152 388 171 423 q 190 457 219 469 q 191 480 172 513 q 152 547 152 582 l 152 773 q 152 826 130 842 q 109 859 46 859 l 46 952 q 163 952 212 914 q 265 875 265 776 l 265 638 q 265 592 266 582 q 268 550 281 528 q 293 506 335 503 z"},"Z":{"x_min":0,"x_max":484,"ha":484,"o":"m 438 890 l 438 756 l 191 134 l 438 134 l 438 0 l 46 0 l 46 134 l 294 756 l 46 756 l 46 890 z"},"x":{"x_min":0,"x_max":587,"ha":587,"o":"m 541 0 l 397 0 l 294 283 l 190 0 l 46 0 l 221 447 l 46 890 l 195 890 l 294 615 l 393 890 l 541 890 l 366 447 z"},")":{"x_min":0,"x_max":358,"ha":358,"o":"m 133 1012 q 182 939 222 851 q 312 656 312 487 q 312 317 222 109 q 183 16 133 -65 l 46 -21 q 85 65 115 153 q 162 290 178 404 q 184 447 184 487 q 184 620 116 810 q 86 893 48 972 z"},"&":{"x_min":0,"x_max":619,"ha":619,"o":"m 570 419 q 538 277 483 179 q 535 131 573 131 l 573 7 q 495 7 412 78 q 332 -6 241 -6 q 136 -6 81 81 q 46 136 46 206 q 46 275 80 349 q 85 362 117 415 q 135 443 153 469 l 125 533 q 105 577 98 595 q 84 631 78 661 q 72 692 72 723 q 72 783 98 832 q 125 885 176 911 q 217 933 266 933 q 320 933 366 906 q 411 879 435 830 q 455 791 455 746 q 455 665 398 593 l 369 555 q 330 504 296 458 q 341 365 397 284 q 430 360 448 446 z m 195 724 q 195 684 237 586 q 245 597 254 607 l 271 631 l 300 668 q 331 710 331 745 q 331 771 324 786 q 306 830 266 830 q 231 830 211 793 q 195 763 195 724 z m 241 118 q 282 118 327 169 q 273 239 217 341 q 205 320 192 297 q 170 248 170 206 q 170 169 187 146 q 206 118 241 118 z"},"_":{"x_min":0,"x_max":779,"ha":779,"o":"m 46 -149 l 46 -50 l 733 -50 l 733 -149 z"},"v":{"x_min":0,"x_max":598,"ha":598,"o":"m 205 0 l 46 890 l 187 890 l 298 197 l 411 890 l 552 890 l 390 0 z"},"O":{"x_min":0,"x_max":518,"ha":518,"o":"m 259 901 q 347 901 409 839 q 472 776 472 688 l 472 202 q 472 114 409 51 q 347 -11 259 -11 q 170 -11 108 52 q 46 114 46 202 l 46 688 q 46 777 109 839 q 171 901 259 901 z m 332 691 q 332 723 309 745 q 287 768 255 768 q 223 768 200 745 q 178 723 178 691 l 178 204 q 178 172 200 150 q 223 127 255 127 q 287 127 309 150 q 332 172 332 204 z"},"(":{"x_min":0,"x_max":359,"ha":359,"o":"m 310 973 q 272 893 242 810 q 195 679 180 570 q 175 528 175 488 q 175 358 244 153 q 274 64 312 -21 l 226 -65 q 175 17 136 110 q 46 318 46 488 q 46 622 102 773 q 116 810 136 852 q 176 940 226 1013 z"},"C":{"x_min":0,"x_max":518,"ha":518,"o":"m 259 -11 q 170 -11 108 51 q 46 113 46 201 l 46 687 q 46 776 109 838 q 171 900 259 900 q 348 900 410 837 q 472 775 472 687 l 472 585 l 332 585 l 332 690 q 332 722 310 744 q 287 767 255 767 q 223 767 201 744 q 178 722 178 690 l 178 202 q 178 170 201 148 q 223 126 255 126 q 287 126 310 148 q 332 170 332 202 l 332 325 l 472 325 l 472 201 q 472 112 409 50 q 347 -11 259 -11 z"},"W":{"x_min":0,"x_max":785,"ha":785,"o":"m 598 890 l 739 890 l 599 0 l 471 0 l 395 486 l 324 0 l 195 0 l 46 890 l 187 890 l 257 413 l 322 890 l 462 890 l 533 413 z"},"A":{"x_min":0,"x_max":577,"ha":577,"o":"m 219 205 l 186 0 l 46 0 l 197 890 l 382 890 l 531 0 l 391 0 l 359 205 z m 289 686 l 239 335 l 339 335 z"},"f":{"x_min":0,"x_max":474,"ha":474,"o":"m 180 0 l 46 0 l 46 891 l 428 891 l 428 756 l 180 756 l 180 513 l 362 513 l 362 378 l 180 378 z"},"Q":{"x_min":0,"x_max":540,"ha":540,"o":"m 472 202 q 472 145 443 96 q 461 75 494 75 l 494 -50 q 393 -50 357 13 q 312 -11 259 -11 q 170 -11 108 52 q 46 114 46 202 l 46 688 q 46 777 109 839 q 171 901 259 901 q 348 901 410 838 q 472 776 472 688 z m 332 691 q 332 723 310 745 q 287 768 255 768 q 223 768 201 745 q 178 723 178 691 l 178 204 q 178 172 201 150 q 223 127 255 127 q 287 127 310 150 q 332 172 332 204 z"},"w":{"x_min":0,"x_max":785,"ha":785,"o":"m 598 890 l 739 890 l 599 0 l 471 0 l 395 486 l 324 0 l 195 0 l 46 890 l 187 890 l 257 413 l 322 890 l 462 890 l 533 413 z"},"-":{"x_min":0,"x_max":490,"ha":490,"o":"m 46 512 l 444 512 l 444 377 l 46 377 z"},"E":{"x_min":0,"x_max":474,"ha":474,"o":"m 46 0 l 46 891 l 428 891 l 428 756 l 180 756 l 180 513 l 362 513 l 362 378 l 180 378 l 180 134 l 428 134 l 428 0 z"},"s":{"x_min":0,"x_max":536,"ha":536,"o":"m 490 222 q 491 129 442 62 q 409 18 349 -1 q 317 -11 275 -11 q 196 -11 144 28 q 101 60 76 115 q 50 170 46 241 l 174 251 q 183 173 215 138 q 239 112 271 114 q 315 115 341 157 q 354 178 354 216 q 354 271 304 326 q 264 364 185 439 q 118 504 90 555 q 60 612 60 680 q 60 801 142 864 q 192 901 267 901 q 339 901 390 869 q 430 844 454 800 q 479 755 484 697 l 355 673 q 349 728 324 759 q 305 781 271 781 q 234 781 214 748 q 199 722 199 683 q 199 621 251 558 q 271 534 311 501 q 358 462 373 447 q 423 397 450 349 q 462 326 470 307 q 489 259 490 222 z"},">":{"x_min":0,"x_max":538,"ha":538,"o":"m 46 678 l 491 485 l 491 388 l 46 197 l 46 310 l 352 437 l 46 565 z"},"l":{"x_min":0,"x_max":458,"ha":458,"o":"m 412 0 l 46 0 l 46 890 l 180 890 l 180 134 l 412 134 z"},"8":{"x_min":0,"x_max":528,"ha":528,"o":"m 482 203 q 482 114 420 53 q 357 -9 269 -9 l 259 -9 q 170 -9 108 53 q 46 116 46 203 l 46 284 q 46 366 101 427 q 124 453 156 470 q 102 498 72 562 q 57 596 57 646 l 57 695 q 57 781 108 838 q 165 902 259 902 l 269 902 q 364 902 420 838 q 472 781 472 695 l 472 646 q 472 563 422 509 q 400 484 373 470 q 433 437 465 369 q 482 334 482 284 z m 348 266 q 348 346 312 373 q 295 386 264 386 q 211 386 192 340 q 180 312 180 266 l 180 224 q 180 180 207 153 q 230 130 264 129 q 319 131 340 183 q 348 200 348 224 z m 352 658 q 351 750 295 773 q 282 779 264 779 q 229 779 207 760 q 190 744 182 720 q 175 695 176 658 q 178 600 195 575 q 216 540 264 540 q 312 540 335 577 q 353 607 352 658 z"},"\\":{"x_min":0,"x_max":573,"ha":573,"o":"m 46 946 l 155 946 l 527 -27 l 418 -27 z"},"e":{"x_min":0,"x_max":474,"ha":474,"o":"m 46 0 l 46 891 l 428 891 l 428 756 l 180 756 l 180 513 l 362 513 l 362 378 l 180 378 l 180 134 l 428 134 l 428 0 z"},"b":{"x_min":0,"x_max":545,"ha":545,"o":"m 46 0 l 46 891 l 247 891 q 327 891 391 849 q 445 813 469 739 q 482 699 482 644 q 482 555 434 501 q 414 478 387 466 q 432 449 463 398 q 484 364 494 310 q 499 283 499 249 q 499 164 467 105 q 442 59 396 31 q 345 0 295 0 z m 191 133 l 247 133 q 315 133 342 203 q 351 227 351 259 q 351 333 322 367 q 297 398 247 398 l 191 398 z m 191 527 l 247 527 q 310 527 331 588 q 339 611 339 644 q 339 700 312 728 q 287 754 247 754 l 191 754 z"},"%":{"x_min":0,"x_max":710,"ha":710,"o":"m 269 563 q 269 518 236 485 q 203 452 158 452 q 112 452 79 485 q 46 518 46 563 l 46 817 q 46 864 79 896 q 112 929 158 929 q 204 929 237 896 q 269 863 269 817 z m 115 565 q 115 548 127 536 q 138 524 156 524 q 173 524 184 536 q 196 548 196 565 l 196 819 q 196 836 184 848 q 173 859 156 859 q 138 859 127 848 q 115 836 115 819 z m 553 472 q 599 472 632 439 q 664 406 664 360 l 664 106 q 664 60 631 28 q 599 -4 553 -4 q 507 -4 474 28 q 442 60 442 106 l 442 360 q 442 406 474 439 q 507 472 553 472 z m 592 362 q 592 379 580 390 q 568 402 551 402 q 534 402 522 390 q 511 379 511 362 l 511 107 q 511 90 522 78 q 534 67 551 67 q 568 67 580 78 q 592 90 592 107 z m 168 -15 l 89 -15 l 543 927 l 621 927 z"},"m":{"x_min":0,"x_max":715,"ha":715,"o":"m 180 0 l 46 0 l 46 891 l 239 891 l 364 252 l 484 891 l 669 891 l 669 0 l 535 0 l 535 560 l 418 0 l 310 0 l 180 558 z"},"#":{"x_min":0,"x_max":820,"ha":820,"o":"m 613 515 l 585 346 l 723 346 l 702 211 l 562 211 l 528 0 l 393 0 l 428 211 l 312 211 l 278 0 l 143 0 l 178 211 l 46 211 l 67 346 l 200 346 l 229 515 l 97 515 l 117 650 l 251 650 l 290 891 l 425 891 l 385 650 l 501 650 l 540 891 l 675 891 l 635 650 l 773 650 l 753 515 z m 478 515 l 363 515 l 335 346 l 450 346 z"},",":{"x_min":0,"x_max":227,"ha":227,"o":"m 46 0 l 46 134 l 181 134 l 181 0 l 132 -102 l 75 -102 l 107 0 z"},"n":{"x_min":0,"x_max":555,"ha":555,"o":"m 197 891 l 375 293 l 375 891 l 509 891 l 509 0 l 365 0 l 180 570 l 180 0 l 46 0 l 46 891 z"},"h":{"x_min":0,"x_max":523,"ha":523,"o":"m 181 377 l 181 0 l 46 0 l 46 890 l 181 890 l 181 512 l 342 512 l 342 890 l 477 890 l 477 0 l 342 0 l 342 377 z"},"z":{"x_min":0,"x_max":484,"ha":484,"o":"m 438 890 l 438 756 l 191 134 l 438 134 l 438 0 l 46 0 l 46 134 l 294 756 l 46 756 l 46 890 z"},"B":{"x_min":0,"x_max":545,"ha":545,"o":"m 46 0 l 46 891 l 247 891 q 327 891 391 849 q 445 813 469 739 q 482 699 482 644 q 482 555 434 501 q 414 478 387 466 q 432 449 463 398 q 484 364 494 310 q 499 283 499 249 q 499 164 467 105 q 442 59 396 31 q 345 0 295 0 z m 191 133 l 247 133 q 315 133 342 203 q 351 227 351 259 q 351 333 322 367 q 297 398 247 398 l 191 398 z m 191 527 l 247 527 q 310 527 331 588 q 339 611 339 644 q 339 700 312 728 q 287 754 247 754 l 191 754 z"},"K":{"x_min":0,"x_max":565,"ha":565,"o":"m 181 281 l 181 0 l 46 0 l 46 891 l 181 891 l 181 573 l 344 891 l 488 891 l 304 526 l 519 0 l 362 0 l 221 361 z"},"R":{"x_min":0,"x_max":543,"ha":543,"o":"m 258 890 q 370 890 423 828 q 469 774 469 678 l 469 548 q 469 454 397 388 l 496 0 l 352 0 l 270 336 q 264 335 258 335 l 180 335 l 180 0 l 46 0 l 46 890 z m 338 675 q 338 753 261 753 l 180 753 l 180 468 l 261 468 q 293 468 316 491 q 338 513 338 545 z"},"T":{"x_min":0,"x_max":511,"ha":511,"o":"m 189 756 l 46 756 l 46 890 l 465 890 l 465 756 l 323 756 l 323 0 l 189 0 z"},"P":{"x_min":0,"x_max":514,"ha":514,"o":"m 258 890 q 356 890 414 828 q 468 769 468 678 l 468 548 q 468 460 407 398 q 345 335 258 335 l 180 335 l 180 0 l 46 0 l 46 890 z m 338 675 q 338 710 317 732 q 296 753 261 753 l 180 753 l 180 468 l 261 468 q 293 468 316 491 q 338 513 338 545 z"},"|":{"x_min":0,"x_max":220,"ha":220,"o":"m 46 1173 l 174 1173 l 174 -73 l 46 -73 z"},"t":{"x_min":0,"x_max":511,"ha":511,"o":"m 189 756 l 46 756 l 46 890 l 465 890 l 465 756 l 323 756 l 323 0 l 189 0 z"},"M":{"x_min":0,"x_max":715,"ha":715,"o":"m 180 0 l 46 0 l 46 891 l 239 891 l 364 252 l 484 891 l 669 891 l 669 0 l 535 0 l 535 560 l 418 0 l 310 0 l 180 558 z"},"g":{"x_min":0,"x_max":518,"ha":518,"o":"m 259 -11 q 170 -11 108 51 q 46 114 46 201 l 46 687 q 46 776 109 838 q 171 900 259 900 q 348 900 410 837 q 472 775 472 687 l 472 585 l 332 585 l 332 690 q 332 722 310 744 q 287 767 255 767 q 223 767 201 744 q 178 722 178 690 l 178 202 q 178 170 201 148 q 223 126 255 126 q 287 126 310 148 q 332 170 332 202 l 332 378 l 258 378 l 258 512 l 472 512 l 472 201 q 472 112 409 50 q 347 -11 259 -11 z"},"j":{"x_min":0,"x_max":388,"ha":388,"o":"m 342 202 q 342 113 279 51 q 217 -10 129 -10 q 78 -10 46 1 l 65 126 q 88 121 104 121 q 114 121 133 122 q 165 124 188 146 q 210 167 210 199 l 210 888 l 342 888 z"},"i":{"x_min":0,"x_max":227,"ha":227,"o":"m 180 0 l 46 0 l 46 890 l 180 890 z"},"y":{"x_min":0,"x_max":587,"ha":587,"o":"m 226 373 l 46 891 l 194 891 l 293 571 l 392 891 l 540 891 l 360 373 l 360 0 l 226 0 z"},"@":{"x_min":0,"x_max":1000,"ha":1000,"o":"m 808 136 l 954 136 l 940 119 q 866 26 752 -28 q 641 -79 519 -79 q 317 -79 182 57 q 46 192 46 415 q 46 637 173 789 q 299 941 524 941 q 660 941 744 889 q 944 767 944 514 q 944 371 864 254 q 774 122 637 122 q 565 122 542 181 q 509 151 483 138 q 452 122 410 122 q 310 122 256 203 q 209 273 209 379 q 209 511 271 624 q 346 759 469 759 q 546 759 597 693 l 604 741 l 738 741 l 661 251 q 661 239 671 239 q 712 239 755 284 q 787 318 809 365 q 838 428 838 514 q 838 657 753 745 q 668 834 526 834 q 363 834 257 722 q 152 610 152 421 q 152 249 248 141 q 348 28 518 28 q 675 28 805 134 z m 534 369 q 558 460 558 542 q 558 584 543 612 q 525 648 487 648 q 414 648 376 526 q 349 440 349 346 q 349 302 365 269 q 386 227 425 227 q 472 227 501 277 q 517 305 534 369 z"},".":{"x_min":0,"x_max":227,"ha":227,"o":"m 46 134 l 180 134 l 180 -1 l 46 -1 z"},"p":{"x_min":0,"x_max":514,"ha":514,"o":"m 258 890 q 356 890 414 828 q 468 769 468 678 l 468 548 q 468 460 407 398 q 345 335 258 335 l 180 335 l 180 0 l 46 0 l 46 890 z m 338 675 q 338 710 317 732 q 296 753 261 753 l 180 753 l 180 468 l 261 468 q 293 468 316 491 q 338 513 338 545 z"},"X":{"x_min":0,"x_max":587,"ha":587,"o":"m 541 0 l 397 0 l 294 283 l 190 0 l 46 0 l 221 447 l 46 890 l 195 890 l 294 615 l 393 890 l 541 890 l 366 447 z"},"*":{"x_min":0,"x_max":445,"ha":445,"o":"m 398 722 l 290 702 l 364 626 l 271 558 l 220 655 l 168 558 l 75 626 l 153 704 l 46 722 l 83 829 l 180 781 l 165 891 l 278 891 l 262 780 l 364 829 z"},"Y":{"x_min":0,"x_max":587,"ha":587,"o":"m 226 373 l 46 891 l 194 891 l 293 571 l 392 891 l 540 891 l 360 373 l 360 0 l 226 0 z"},"c":{"x_min":0,"x_max":518,"ha":518,"o":"m 259 -11 q 170 -11 108 51 q 46 113 46 201 l 46 687 q 46 776 109 838 q 171 900 259 900 q 348 900 410 837 q 472 775 472 687 l 472 585 l 332 585 l 332 690 q 332 722 310 744 q 287 767 255 767 q 223 767 201 744 q 178 722 178 690 l 178 202 q 178 170 201 148 q 223 126 255 126 q 287 126 310 148 q 332 170 332 202 l 332 325 l 472 325 l 472 201 q 472 112 409 50 q 347 -11 259 -11 z"},"!":{"x_min":0,"x_max":227,"ha":227,"o":"m 46 393 l 46 891 l 180 891 l 180 393 l 170 221 l 56 221 z m 46 0 l 46 134 l 180 134 l 180 0 z"},"/":{"x_min":0,"x_max":573,"ha":573,"o":"m 418 947 l 527 947 l 156 -27 l 46 -27 z"},"[":{"x_min":0,"x_max":318,"ha":318,"o":"m 46 946 l 272 946 l 272 811 l 181 811 l 181 133 l 272 133 l 272 -1 l 46 -1 z"},"6":{"x_min":0,"x_max":497,"ha":497,"o":"m 311 670 l 311 692 q 311 724 294 747 q 276 769 244 769 q 212 769 195 747 q 178 724 178 692 l 178 514 q 224 555 279 555 q 368 555 412 494 q 451 440 451 344 l 451 191 l 450 191 q 446 106 389 48 q 332 -9 249 -9 q 160 -9 102 54 q 46 115 46 203 l 46 689 q 46 754 78 807 q 109 859 168 885 q 205 902 249 902 q 337 902 395 838 q 451 777 451 689 l 451 670 z m 178 205 q 178 173 195 151 q 212 128 244 128 q 276 128 294 151 q 311 173 311 205 l 311 370 q 311 408 283 434 q 269 446 245 446 q 210 446 192 418 q 178 396 178 368 z"},"r":{"x_min":0,"x_max":543,"ha":543,"o":"m 258 890 q 370 890 423 828 q 469 774 469 678 l 469 548 q 469 454 397 388 l 496 0 l 352 0 l 270 336 q 264 335 258 335 l 180 335 l 180 0 l 46 0 l 46 890 z m 338 675 q 338 753 261 753 l 180 753 l 180 468 l 261 468 q 293 468 316 491 q 338 513 338 545 z"},"2":{"x_min":0,"x_max":530,"ha":530,"o":"m 48 639 q 48 766 116 832 q 175 891 271 891 q 359 891 422 825 q 484 759 484 671 q 484 580 443 496 q 421 449 340 335 q 318 303 275 237 l 251 201 q 227 165 215 145 q 210 135 210 133 l 473 132 l 473 1 l 46 1 l 46 124 q 46 128 76 173 q 89 193 107 218 l 141 268 q 172 310 237 403 q 299 489 330 560 q 354 617 354 667 q 354 707 332 736 q 307 766 268 766 q 212 766 188 701 q 180 680 180 650 l 180 616 l 48 616 z"},"{":{"x_min":0,"x_max":381,"ha":381,"o":"m 116 783 q 116 881 168 920 q 217 958 335 958 l 335 865 q 273 865 251 848 q 229 831 229 778 l 229 588 q 229 554 211 522 q 192 487 162 475 q 190 464 210 430 q 229 399 229 362 l 229 171 q 229 118 251 102 q 273 85 335 85 l 335 -8 q 217 -8 168 30 q 116 69 116 168 l 116 305 q 116 379 110 396 q 95 437 46 440 l 46 509 q 95 513 110 554 q 116 571 116 645 z"},"9":{"x_min":0,"x_max":497,"ha":497,"o":"m 249 902 q 337 902 395 838 q 451 777 451 689 l 451 203 q 451 114 393 53 q 335 -9 249 -9 q 160 -9 102 54 q 46 115 46 203 l 46 222 l 185 222 l 185 200 q 185 168 203 146 q 220 124 252 124 q 284 124 301 146 q 319 168 319 200 l 319 379 q 272 337 217 337 q 129 337 85 398 q 46 452 46 549 l 46 702 l 47 702 q 50 763 82 813 q 114 862 170 886 q 206 902 249 902 z m 319 688 q 319 720 301 743 q 284 765 252 765 q 220 765 203 743 q 185 720 185 688 l 185 523 q 185 484 214 458 q 227 446 251 446 q 303 446 315 500 q 319 516 319 525 z"}," ":{"x_min":0,"x_max":92,"ha":92,"o":""},"I":{"x_min":0,"x_max":227,"ha":227,"o":"m 180 0 l 46 0 l 46 890 l 180 890 z"},"H":{"x_min":0,"x_max":523,"ha":523,"o":"m 181 377 l 181 0 l 46 0 l 46 890 l 181 890 l 181 512 l 342 512 l 342 890 l 477 890 l 477 0 l 342 0 l 342 377 z"},"4":{"x_min":0,"x_max":550,"ha":550,"o":"m 46 327 l 283 891 l 418 891 l 418 327 l 504 327 l 504 192 l 418 192 l 418 1 l 283 1 l 283 192 l 46 192 z m 283 327 l 283 605 l 173 327 z"},"~":{"x_min":0,"x_max":527,"ha":527,"o":"m 320 986 q 337 979 350 979 q 376 979 406 1021 l 481 965 q 420 884 347 887 q 305 888 239 925 q 191 951 174 951 q 151 951 121 912 l 46 967 q 104 1046 177 1043 q 210 1043 251 1023 q 286 1004 320 986 z"},"D":{"x_min":0,"x_max":514,"ha":514,"o":"m 468 213 q 468 125 406 62 q 344 0 257 0 l 46 0 l 46 891 l 257 891 q 345 891 407 828 q 468 766 468 678 z m 180 133 l 261 133 q 293 133 315 156 q 337 179 337 210 l 337 676 q 337 708 315 731 q 293 754 261 754 l 180 754 z"},"^":{"x_min":0,"x_max":379,"ha":379,"o":"m 222 1031 l 333 782 l 241 782 l 190 903 l 140 782 l 46 782 l 157 1031 z"},"0":{"x_min":0,"x_max":518,"ha":518,"o":"m 472 203 q 472 114 409 53 q 347 -9 259 -9 q 170 -9 108 53 q 46 115 46 203 l 46 689 q 46 778 109 840 q 171 902 259 902 q 348 902 410 839 q 472 777 472 689 z m 332 692 q 332 724 310 746 q 287 769 255 769 q 223 769 201 746 q 178 724 178 692 l 178 205 q 178 173 201 151 q 223 128 255 128 q 287 128 310 151 q 332 173 332 205 z"},"F":{"x_min":0,"x_max":474,"ha":474,"o":"m 180 0 l 46 0 l 46 891 l 428 891 l 428 756 l 180 756 l 180 513 l 362 513 l 362 378 l 180 378 z"},"`":{"x_min":0,"x_max":289,"ha":289,"o":"m 46 1006 l 170 1006 l 243 802 l 160 802 z"},"k":{"x_min":0,"x_max":565,"ha":565,"o":"m 181 281 l 181 0 l 46 0 l 46 891 l 181 891 l 181 573 l 344 891 l 488 891 l 304 526 l 519 0 l 362 0 l 221 361 z"},"u":{"x_min":0,"x_max":518,"ha":518,"o":"m 259 -10 q 170 -10 108 52 q 46 114 46 202 l 46 890 l 178 890 l 178 203 q 178 171 200 149 q 223 126 255 126 q 287 126 309 149 q 332 171 332 203 l 332 890 l 472 890 l 472 202 q 472 112 409 51 q 347 -10 259 -10 z"},"]":{"x_min":0,"x_max":317,"ha":317,"o":"m 46 947 l 271 947 l 271 -1 l 46 -1 l 46 134 l 137 134 l 137 812 l 46 812 z"},"U":{"x_min":0,"x_max":518,"ha":518,"o":"m 259 -10 q 170 -10 108 52 q 46 114 46 202 l 46 890 l 178 890 l 178 203 q 178 171 200 149 q 223 126 255 126 q 287 126 309 149 q 332 171 332 203 l 332 890 l 472 890 l 472 202 q 472 112 409 51 q 347 -10 259 -10 z"},"o":{"x_min":0,"x_max":518,"ha":518,"o":"m 259 901 q 347 901 409 839 q 472 776 472 688 l 472 202 q 472 114 409 51 q 347 -11 259 -11 q 170 -11 108 52 q 46 114 46 202 l 46 688 q 46 777 109 839 q 171 901 259 901 z m 332 691 q 332 723 309 745 q 287 768 255 768 q 223 768 200 745 q 178 723 178 691 l 178 204 q 178 172 200 150 q 223 127 255 127 q 287 127 309 150 q 332 172 332 204 z"},"N":{"x_min":0,"x_max":555,"ha":555,"o":"m 197 891 l 375 293 l 375 891 l 509 891 l 509 0 l 365 0 l 180 570 l 180 0 l 46 0 l 46 891 z"},"+":{"x_min":0,"x_max":550,"ha":550,"o":"m 325 485 l 504 485 l 504 386 l 325 386 l 325 207 l 225 207 l 225 386 l 46 386 l 46 485 l 225 485 l 225 664 l 325 664 z"},"G":{"x_min":0,"x_max":518,"ha":518,"o":"m 259 -11 q 170 -11 108 51 q 46 114 46 201 l 46 687 q 46 776 109 838 q 171 900 259 900 q 348 900 410 837 q 472 775 472 687 l 472 585 l 332 585 l 332 690 q 332 722 310 744 q 287 767 255 767 q 223 767 201 744 q 178 722 178 690 l 178 202 q 178 170 201 148 q 223 126 255 126 q 287 126 310 148 q 332 170 332 202 l 332 378 l 258 378 l 258 512 l 472 512 l 472 201 q 472 112 409 50 q 347 -11 259 -11 z"},"q":{"x_min":0,"x_max":540,"ha":540,"o":"m 472 202 q 472 145 443 96 q 461 75 494 75 l 494 -50 q 393 -50 357 13 q 312 -11 259 -11 q 170 -11 108 52 q 46 114 46 202 l 46 688 q 46 777 109 839 q 171 901 259 901 q 348 901 410 838 q 472 776 472 688 z m 332 691 q 332 723 310 745 q 287 768 255 768 q 223 768 201 745 q 178 723 178 691 l 178 204 q 178 172 201 150 q 223 127 255 127 q 287 127 310 150 q 332 172 332 204 z"},"d":{"x_min":0,"x_max":514,"ha":514,"o":"m 468 213 q 468 125 406 62 q 344 0 257 0 l 46 0 l 46 891 l 257 891 q 345 891 407 828 q 468 766 468 678 z m 180 133 l 261 133 q 293 133 315 156 q 337 179 337 210 l 337 676 q 337 708 315 731 q 293 754 261 754 l 180 754 z"},"1":{"x_min":0,"x_max":341,"ha":341,"o":"m 160 0 l 160 685 l 46 685 l 46 779 q 94 785 138 816 q 182 847 201 891 l 295 891 l 295 0 z"},"5":{"x_min":0,"x_max":508,"ha":508,"o":"m 195 756 l 195 565 q 214 594 251 609 q 270 617 295 617 q 384 617 425 555 q 462 502 462 405 l 462 213 q 462 114 399 51 q 339 -10 249 -10 q 161 -10 102 54 q 46 115 46 203 l 46 224 l 175 234 l 178 204 q 183 151 221 133 q 232 127 245 127 q 327 127 327 213 l 327 431 q 327 470 299 496 q 286 508 261 508 q 226 508 209 480 q 195 456 195 429 l 195 405 l 60 405 l 60 891 l 452 891 l 452 756 z"}}}
